{"title":"The Doors(1991)MP-4[DaScubaDude","uid":12357309,"size":1555990700,"categoryP":"video","categoryS":"movies","magnet":"?xt=urn:btih:06607997cdf852ae5dc446d233785c5af3aa2081&amp;dn=The+Doors%281991%29MP-4%5BDaScubaDude&amp;tr=udp%3A%2F%2Ftracker.openbittorrent.com%3A80&amp;tr=udp%3A%2F%2Fopen.demonii.com%3A1337&amp;tr=udp%3A%2F%2Ftracker.coppersurfer.tk%3A6969&amp;tr=udp%3A%2F%2Fexodus.desync.com%3A6969","seeders":6,"leechers":1,"uploader":"dascuba","files":1,"time":1441489755,"description":"The Doors (1991)\nR  |  140 min  |  Biography, Drama, Music  |  1 March 1991 (USA)\n7.2 Your rating:   -/10   Ratings: 7.2/10 from 64,481 users   Metascore: 62/100 \nReviews: 202 user | 79 critic | 19 from Metacritic.com\nThe story of the famous and influential 1960s rock band and its lead singer and composer, Jim Morrison, from his days as a UCLA film student in Los Angeles, to his untimely death in Paris, France at age 27 in 1971.\n\nDirector: Oliver Stone\nWriters: Randall Jahnson (as J. Randal Johnson) , Oliver Stone\nStars: Val Kilmer, Meg Ryan, Kyle MacLachlan \n\nGeneral\nComplete name                            : C:The DoorsDOORS_D1_Title1.mp4\nFormat                                   : MPEG-4\nFormat profile                           : Base Media\nCodec ID                                 : isom\nFile size                                : 1.45 GiB\nDuration                                 : 2h 14mn\nOverall bit rate mode                    : Constant\nOverall bit rate                         : 1 537 Kbps\nMovie name                               : DOORS_D1\nGenre                                    : Drama\nWriting application                      : Lavf54.6.100\n\nVideo\nID                                       : 1\nFormat                                   : MPEG-4 Visual\nFormat settings, BVOP                    : No\nFormat settings, QPel                    : No\nFormat settings, GMC                     : No warppoints\nFormat settings, Matrix                  : Default (H.263)\nCodec ID                                 : 20\nDuration                                 : 2h 14mn\nBit rate mode                            : Constant\nBit rate                                 : 1 403 Kbps\nWidth                                    : 720 pixels\nHeight                                   : 540 pixels\nDisplay aspect ratio                     : 4:3\nFrame rate mode                          : Constant\nFrame rate                               : 29.970 fps\nColor space                              : YUV\nChroma subsampling                       : 4:2:0\nBit depth                                : 8 bits\nScan type                                : Progressive\nCompression mode                         : Lossy\nBits/(Pixel*Frame)                       : 0.120\nStream size                              : 1.32 GiB (91%)\nWriting library                          : Lavc54.23.100\n\nAudio\nID                                       : 2\nFormat                                   : MPEG Audio\nFormat version                           : Version 1\nFormat profile                           : Layer 3\nCodec ID                                 : 6B\nDuration                                 : 2h 14mn\nBit rate mode                            : Constant\nBit rate                                 : 128 Kbps\nChannel(s)                               : 2 channels\nSampling rate                            : 44.1 KHz\nCompression mode                         : Lossy\nStream size                              : 124 MiB (8%)\nWriting library                          : LAMEUU\u0018 / Z","torrent":{"xt":"urn:btih:06607997cdf852ae5dc446d233785c5af3aa2081","amp;dn":"The+Doors%281991%29MP-4%5BDaScubaDude","amp;tr":["udp%3A%2F%2Ftracker.openbittorrent.com%3A80","udp%3A%2F%2Fopen.demonii.com%3A1337","udp%3A%2F%2Ftracker.coppersurfer.tk%3A6969","udp%3A%2F%2Fexodus.desync.com%3A6969"],"infoHash":"06607997cdf852ae5dc446d233785c5af3aa2081","infoHashBuffer":{"type":"Buffer","data":[6,96,121,151,205,248,82,174,93,196,70,210,51,120,92,90,243,170,32,129]},"announce":[],"urlList":[]}}